<?xml version="1.0" encoding="iso-8859-1"?>
<!-- Uploaded to: SVG Repo, www.svgrepo.com, Generator: SVG Repo Mixer Tools -->
<!DOCTYPE svg PUBLIC "-//W3C//DTD SVG 1.1//EN" "http://www.w3.org/Graphics/SVG/1.1/DTD/svg11.dtd">
<svg fill="#000000" version="1.1" id="Capa_1" xmlns="http://www.w3.org/2000/svg" xmlns:xlink="http://www.w3.org/1999/xlink" 
	  height="40px"  viewBox="0 0 98.463 98.462"
	 xml:space="preserve">
<g>
	<g>
		<path d="M49.648,35.487c-4.286,0-7.771,3.485-7.771,7.771c0,2.756,1.418,5.248,3.793,6.669c0.276,0.166,0.567,0.314,0.87,0.447
			v0.98c-0.229,0.186-0.386,0.453-0.386,0.771c0,0.312,0.155,0.584,0.386,0.768v1.166c0,0.553,0.445,1,1,1h4.219
			c0.554,0,1-0.447,1-1v-1.166c0.228-0.184,0.384-0.453,0.384-0.768s-0.154-0.586-0.384-0.771v-0.98
			c0.302-0.133,0.593-0.281,0.871-0.447c2.373-1.421,3.791-3.913,3.791-6.669C57.419,38.973,53.934,35.487,49.648,35.487z
			 M52.602,48.21c-0.357,0.215-0.75,0.395-1.158,0.527s-0.688,0.519-0.688,0.947v1.438h-2.218v-1.438
			c0-0.432-0.275-0.812-0.687-0.947c-0.41-0.137-0.8-0.313-1.158-0.527c-1.766-1.055-2.817-2.906-2.817-4.952
			c0-3.183,2.59-5.771,5.771-5.771c3.182,0,5.771,2.59,5.771,5.771C55.419,45.304,54.367,47.155,52.602,48.21z"/>
		<path d="M49.623,35.067c0.553,0,1-0.447,1-1v-3.654c0-0.553-0.447-1-1-1c-0.554,0-1,0.447-1,1v3.654
			C48.623,34.621,49.069,35.067,49.623,35.067z"/>
		<path d="M43.589,36.949c0.256,0,0.512-0.099,0.707-0.293c0.391-0.392,0.391-1.024,0-1.414l-1.938-1.936
			c-0.391-0.392-1.021-0.392-1.414,0c-0.391,0.392-0.391,1.023,0,1.414l1.938,1.936C43.078,36.851,43.335,36.949,43.589,36.949z"/>
		<path d="M56.096,32.937l-2.306,2.306c-0.394,0.391-0.394,1.022,0,1.414c0.192,0.194,0.448,0.293,0.707,0.293
			c0.256,0,0.512-0.099,0.705-0.293l2.307-2.306c0.392-0.392,0.392-1.022,0-1.414C57.119,32.544,56.486,32.545,56.096,32.937z"/>
		<path d="M86.527,15.112H11.929c-1.261,0-2.286,1.024-2.286,2.285v49.678c0,1.264,1.025,2.287,2.286,2.287h74.598
			c1.262,0,2.285-1.023,2.285-2.287V17.397C88.812,16.138,87.789,15.112,86.527,15.112z M86.812,67.078
			c0,0.156-0.127,0.285-0.285,0.285H11.929c-0.158,0-0.286-0.129-0.286-0.285v-49.68c0-0.157,0.128-0.285,0.286-0.285h74.598
			c0.158,0,0.285,0.128,0.285,0.285V67.078z"/>
		<path d="M92.012,70.664c-0.019-0.125-0.044-0.25-0.08-0.371c0.063-0.211,0.098-0.428,0.098-0.646v-54.82
			c0-1.262-1.023-2.286-2.285-2.286H8.714c-1.262,0-2.286,1.024-2.286,2.286v54.822c0,0.219,0.032,0.436,0.096,0.645
			c-0.037,0.123-0.063,0.246-0.079,0.371l-6.34,12.521C0.036,83.326,0,83.48,0,83.635c0,1.263,1.023,2.287,2.285,2.287h93.891
			c1.264,0,2.287-1.024,2.287-2.287c0-0.155-0.037-0.312-0.105-0.45L92.012,70.664z M96.173,83.92H2.284
			c-0.103,0-0.19-0.054-0.241-0.133L8.32,71.386c0.07-0.14,0.107-0.296,0.107-0.451c0-0.045,0.015-0.093,0.043-0.142
			c0.181-0.313,0.181-0.694,0-1.006c-0.029-0.05-0.043-0.099-0.043-0.144v-54.82c0-0.158,0.128-0.286,0.286-0.286H89.74
			c0.158,0,0.285,0.128,0.285,0.286v54.822c0,0.045-0.014,0.092-0.043,0.142c-0.182,0.313-0.182,0.694,0,1.006
			c0.027,0.052,0.043,0.099,0.043,0.144c0,0.155,0.037,0.312,0.107,0.451l6.279,12.399C96.365,83.869,96.275,83.92,96.173,83.92z"/>
	</g>
</g>
</svg>